<svg display="none" xmlns="http://www.w3.org/2000/svg">
    <symbol id="notification" viewBox="0 0 24 24">
        <g>
	        <path d="M11.9906 2C12.7946 2 13.4653 2.65177 13.4653 3.45577C13.4653 3.54333 13.4575 3.62909 13.4427 3.71239C16.2661 4.36243 18.3714 6.89144 18.3714 9.91218V11.6704L18.3706 11.8815C18.3649 13.2874 18.3577 15.0808 19.5625 15.6123C20.5503 16.0481 20.5475 17.234 20.5457 17.9804L20.5456 18.0701H3.45453L3.45438 17.9804C3.4526 17.234 3.44976 16.0481 4.43764 15.6123C5.64239 15.0808 5.63515 13.2874 5.62947 11.8815L5.62871 11.6704V9.91218C5.62871 6.89144 7.73402 4.36243 10.5574 3.71239C10.5426 3.62909 10.5348 3.54333 10.5348 3.45577C10.5348 2.65177 11.1866 2 11.9906 2Z" fill="#AFB3BB"/>
            <path fill-rule="evenodd" clip-rule="evenodd" d="M8.46759 19.1666C8.86082 20.7519 10.2932 21.9269 12.0001 21.9269C13.707 21.9269 15.1394 20.7519 15.5326 19.1666H8.46759Z" fill="#AFB3BB"/>
        </g>
    </symbol>
    <symbol id="favourite" viewBox="0 0 24 24">
        <g>
	        <path d="M6.65901 3.79081C7.08097 3.28446 7.65326 3 8.25 3H15.75C16.3467 3 16.919 3.28446 17.341 3.79081C17.7629 4.29716 18 4.98391 18 5.7V20.1C18 20.4371 17.843 20.746 17.5932 20.9002C17.3434 21.0545 17.0427 21.0283 16.8141 20.8324L12 16.706L7.18593 20.8324C6.95732 21.0283 6.65662 21.0545 6.40681 20.9002C6.15701 20.746 6 20.4371 6 20.1V5.7C6 4.98392 6.23705 4.29716 6.65901 3.79081Z" fill="#AFB3BB"/>
        </g>
    </symbol>
    <symbol id="filter" viewBox="0 0 16 16">
        <g>
	        <line x1="1" y1="5" x2="3" y2="5" stroke-width="2" stroke-linecap="round" stroke-linejoin="round"/>
            <line x1="1" y1="11" x2="5" y2="11" stroke-width="2" stroke-linecap="round" stroke-linejoin="round"/>
            <line x1="11" y1="5" x2="15" y2="5" stroke-width="2" stroke-linecap="round" stroke-linejoin="round"/>
            <line x1="13" y1="11" x2="15" y2="11" stroke-width="2" stroke-linecap="round" stroke-linejoin="round"/>
            <circle cx="5" cy="5" r="2" stroke-width="2" fill="#ffffff"/>
            <circle cx="11" cy="11" r="2" stroke-width="2" fill="#ffffff"/>
        </g>
    </symbol>
    <symbol id="arrow" viewBox="0 0 16 16">
        <g>
	        <path d="M3 6L8 11" stroke-width="2" stroke-linecap="round" stroke-linejoin="round"/>
            <path d="M13 6L8 11" stroke-width="2" stroke-linecap="round" stroke-linejoin="round"/>
        </g>
    </symbol>
    <symbol id="like" viewBox="0 0 16 16">
        <g>
	        <path d="M11.4832 1.33337C9.5765 1.33337 8.3665 3.43078 7.99984 4.19268C7.63317 3.43078 6.42317 1.33337 4.5165 1.33337C2.13317 1.33337 0.666504 3.42861 0.666504 5.33337C0.666504 7.23814 1.68317 8.81389 3.33317 10.3377C4.65317 11.5568 7.08317 13.9683 7.99984 14.6667C8.9165 13.9683 11.3465 11.5568 12.6665 10.3377C14.3165 8.81389 15.3332 7.23814 15.3332 5.33337C15.3332 3.42861 13.8665 1.33337 11.4832 1.33337Z"/>
        </g>
    </symbol>
    <symbol id="comment" viewBox="0 0 16 16">
        <g>
	        <path fill-rule="evenodd" clip-rule="evenodd" d="M6.5 1C3.46243 1 1 3.46243 1 6.5C1 9.01755 2.6915 11.14 5 11.793V15L8.6 12H9.5C12.5376 12 15 9.53757 15 6.5C15 3.46243 12.5376 1 9.5 1H6.5Z" fill="white"/>
        </g>
    </symbol>
    <symbol id="menu" viewBox="0 0 24 24">
        <g>
	        <rect x="1" y="4" width="22" height="3" rx="1" fill="#AFB3BB"/>
            <rect x="1" y="11" width="13" height="3" rx="1" fill="#AFB3BB"/>
            <rect x="1" y="18" width="18" height="3" rx="1" fill="#AFB3BB"/>
        </g>
    </symbol>
    <symbol id="cross" viewBox="0 0 16 16">
        <g>
	        <path d="M3 3L13 13" stroke="#333333" stroke-width="2" stroke-linecap="round" stroke-linejoin="round"/>
            <path d="M13 3L3 13" stroke="#333333" stroke-width="2" stroke-linecap="round" stroke-linejoin="round"/>
        </g>
    </symbol>
    <symbol id="filterMob" viewBox="0 0 16 16">
        <g>
	        <line x1="2" y1="4" x2="14" y2="4" stroke="black" stroke-width="2" stroke-linecap="round" stroke-linejoin="round"/>
            <line x1="4" y1="8" x2="12" y2="8" stroke="black" stroke-width="2" stroke-linecap="round" stroke-linejoin="round"/>
            <line x1="6" y1="12" x2="10" y2="12" stroke="black" stroke-width="2" stroke-linecap="round" stroke-linejoin="round"/>
        </g>
    </symbol>
</svg>

